<svg xmlns="http://www.w3.org/2000/svg" version="1.0" viewBox="0 0 128 128"><g stroke-width="0"><path d="M48 16.8c0 .5.9 1.7 2.1 2.8 1.2 1 2.7 3.1 3.5 4.5 1.2 2.3 1.1 2.9-.2 4-2.5 2-4.4 6.5-4.4 10.4 0 1.9.1 3.5.3 3.5.1 0 2.4-.7 5.1-1.5 2.7-.8 7-1.5 9.6-1.5 2.6 0 6.9.7 9.6 1.5 2.7.8 5 1.5 5.2 1.5.1 0 .2-1.6.2-3.5 0-3.9-1.9-8.4-4.4-10.4-1.8-1.5-.9-3.9 3.2-8.3 1.4-1.5 2.2-3.1 1.9-3.5-.9-.8-5.3 3.3-7.4 6.8-1.4 2.4-1.9 2.5-4.9 1.6-2.4-.7-4.5-.7-6.9 0-1.9.6-3.5.8-3.5.4s-1.6-2.6-3.6-4.9C50 16.2 48 15 48 16.8z"/><path d="M52.2 43.1c-6.7 2.6-14 9.7-17.8 17.4-2.6 5.5-2.9 6.9-2.9 16.5 0 9.5.3 11.1 2.9 16.7 1.7 3.8 4.7 8 7.6 10.7 4.9 4.6 10.5 8 11.8 7.2.5-.3 2.8-8.8 5.2-19C61.4 82.3 63.7 74 64 74c.3 0 2.6 8.3 5 18.6 2.4 10.2 4.7 18.7 5.2 19 1.3.8 6.9-2.6 11.8-7.2 2.9-2.7 5.9-6.9 7.6-10.7 2.6-5.6 2.9-7.2 2.9-16.7 0-9.6-.3-11-2.9-16.5-8-16.2-25.4-23.5-41.4-17.4zm15.2 7.4c.9 2.4-.4 4.5-2.9 4.5-1.3 0-2.5-.7-2.9-1.5-.9-2.4.4-4.5 2.9-4.5 1.3 0 2.5.7 2.9 1.5zm-15.9 9.3c.8 2-1.9 4.7-3.9 3.9-2.6-1-3.2-3.8-1.2-5.3 2.1-1.5 4.2-.9 5.1 1.4zm31.5.6c0 2.3-3 4.1-4.8 3-2.3-1.5-2.5-2.9-.7-4.8 1.2-1.2 2.1-1.3 3.6-.6 1 .6 1.9 1.7 1.9 2.4zM47.8 77.1c.4 3-2.2 4.6-4.4 2.8-1.7-1.4-1.8-4.6-.1-5.2 2.5-1.1 4.2-.1 4.5 2.4zm36.6-2.5c2 .8 2.1 3.8.2 5.3-1.9 1.6-4.6.3-4.6-2.3 0-3.4 1.2-4.2 4.4-3zM48.8 90.2c1.6 1.6 1.5 2.3-.4 4.2-1.2 1.2-2 1.3-3.5.6-1-.6-1.9-1.6-1.9-2.3 0-1.6 2-3.7 3.5-3.7.6 0 1.6.5 2.3 1.2zm35.6 1.1c.9 1.4.7 2.1-.7 3.2-3.3 2.4-7.1-1.1-4.6-4.2 1.5-1.8 3.9-1.3 5.3 1z"/></g><path fill="#666" d="M30.2 77.5c0 1.6.2 2.2.5 1.2.2-.9.2-2.3 0-3-.3-.6-.5.1-.5 1.8zm67 0c0 1.6.2 2.2.5 1.2.2-.9.2-2.3 0-3-.3-.6-.5.1-.5 1.8z"/><path fill="#FFF" d="M62.4 50.4c-.9 2.4.4 4.8 2.3 4.4 1.2-.2 1.8-1.2 1.8-2.8 0-2.9-3.2-4.1-4.1-1.6zm-16.7 8.9c-.3.9 0 2.2.6 3.2 1.7 2.2 4.9.9 4.5-1.9-.4-2.5-4.3-3.4-5.1-1.3zm32-.6c-1.3 1.2-.7 4.1 1 4.7 2 .8 4.4-1.9 3.6-4-.5-1.4-3.5-1.9-4.6-.7zM43.5 75.3C41.2 77 42.1 80 45 80c2.6 0 3.7-2.7 1.8-4.6-1.2-1.2-1.7-1.2-3.3-.1zm37.5.2c-1.8 2.1-.4 4.7 2.2 4.3 2.9-.4 3.5-3.4 1-4.7-1.5-.8-2.3-.7-3.2.4zM44.6 90.6c-.8.8-1.3 2.1-.9 3 .8 2.2 4.7 1.3 5.1-1.2.4-2.7-2.2-3.8-4.2-1.8zm35.5-.6c-1.8 1.1-.9 4.4 1.3 4.8 1 .2 2.2-.2 2.6-.9 1.6-2.5-1.4-5.5-3.9-3.9z"/><path fill="#CCC" d="M48.2 38c0 1.4.2 1.9.5 1.2.2-.6.2-1.8 0-2.5-.3-.6-.5-.1-.5 1.3zm31 0c0 1.4.2 1.9.5 1.2.2-.6.2-1.8 0-2.5-.3-.6-.5-.1-.5 1.3z"/><path fill="#999" d="M62.8 40.7c.6.2 1.8.2 2.5 0 .6-.3.1-.5-1.3-.5-1.4 0-1.9.2-1.2.5z"/></svg>